<svg xmlns="http://www.w3.org/2000/svg" viewBox="0 0 46 46">
<rect width="46" height="46" rx="4" fill="#FEE600"/>
<path fill-rule="evenodd" clip-rule="evenodd" d="M33.17 19.88L38.93 14.12L40.47 15.66L40.48 15.65C40.48 14.66 40.19 11.26 37.45 8.6C34.4 5.61 31.34 7.36 30.28 8.41L24.73 13.96L26.11 15.33L23.09 18.35L20.07 15.33L21.45 13.96L15.9 8.41C14.85 7.36 11.79 5.61 8.73 8.6C6 11.26 5.7 14.66 5.7 15.65L5.71 15.66L7.25 14.12L13.01 19.88L14.6 18.29V14.5L16.23 16.13V20.72L18.48 22.96L6.82 34.63L11.43 39.24L23.09 27.58L34.75 39.24L39.37 34.63L27.7 22.96L29.95 20.72V16.13L31.58 14.5V18.29L33.17 19.88Z" fill="#2B2D33"/>
</svg>